<svg xmlns="http://www.w3.org/2000/svg" width="108.41" height="75.16" viewBox="0 0 108.41 75.16"><defs><style>.cls-1{fill:#004e80;}</style></defs><g id="Layer_2" data-name="Layer 2"><g id="Capa_1" data-name="Capa 1"><path class="cls-1" d="M81.88,75.16A13.67,13.67,0,1,1,95.54,61.49,13.68,13.68,0,0,1,81.88,75.16Zm0-20.5a6.83,6.83,0,1,0,6.83,6.83A6.84,6.84,0,0,0,81.88,54.66Z"/><path class="cls-1" d="M35.19,75.16A13.67,13.67,0,1,1,48.85,61.49,13.68,13.68,0,0,1,35.19,75.16Zm0-20.5A6.83,6.83,0,1,0,42,61.49,6.84,6.84,0,0,0,35.19,54.66Z"/><path class="cls-1" d="M95.22,32.17l-9.3-18.51H70V6.83H88a3.42,3.42,0,0,1,3.06,1.88L101.33,29.1Z"/><rect class="cls-1" x="45.78" y="58.19" width="25.85" height="6.83"/><path class="cls-1" d="M24.94,65H13.1a3.42,3.42,0,1,1,0-6.83H24.94a3.42,3.42,0,0,1,0,6.83Z"/><path class="cls-1" d="M105,65H92.12a3.42,3.42,0,0,1,0-6.83h9.46V40.57l-5-6.41H70a3.41,3.41,0,0,1-3.41-3.41V6.83H13.1A3.42,3.42,0,1,1,13.1,0H70a3.42,3.42,0,0,1,3.42,3.42V27.33H98.27a3.41,3.41,0,0,1,2.7,1.32l6.72,8.66a3.35,3.35,0,0,1,.72,2.09V61.61A3.42,3.42,0,0,1,105,65Z"/><path class="cls-1" d="M24.71,47.71H9a3.42,3.42,0,1,1,0-6.83H24.71a3.42,3.42,0,1,1,0,6.83Z"/><path class="cls-1" d="M32.57,34.28H3.42a3.42,3.42,0,0,1,0-6.84H32.57a3.42,3.42,0,0,1,0,6.84Z"/><path class="cls-1" d="M38.15,20.84H9A3.42,3.42,0,1,1,9,14H38.15a3.42,3.42,0,0,1,0,6.83Z"/></g></g></svg>