<svg xmlns="http://www.w3.org/2000/svg" width="66.36" height="89.24" viewBox="0 0 66.36 89.24"><defs><style>.cls-1{fill:#004e80;stroke:#004e80;stroke-miterlimit:10;stroke-width:0.5px;}</style></defs><g id="Layer_2" data-name="Layer 2"><g id="Capa_1" data-name="Capa 1"><path class="cls-1" d="M60.91,75.13H55.19V71.92a13.56,13.56,0,0,0-3.44-9c.27-.25.55-.51.82-.78a22.4,22.4,0,0,0,6.61-15.92,22.14,22.14,0,0,0-1.74-8.66,8.25,8.25,0,0,0,.21-1.87,8.64,8.64,0,0,0-2.92-6.48l.52-.91a5.21,5.21,0,0,0-.55-6l2.11-3.66a3.5,3.5,0,0,0,3-1.73l2.6-4.51A1.73,1.73,0,0,0,61.78,10L45.27.48a1.74,1.74,0,0,0-2.37.64l-2.6,4.5a3.47,3.47,0,0,0,0,3.46l-2.11,3.67a5.27,5.27,0,0,0-2.3.09,5.2,5.2,0,0,0-3.16,2.42L23.2,31.77a5.24,5.24,0,0,0,.55,6L21.87,41a3.49,3.49,0,0,0,1.27,4.74l10.51,6.06a3.38,3.38,0,0,0,1.72.47,3.48,3.48,0,0,0,3-1.74l1.88-3.26a4.91,4.91,0,0,0,.94.09,5.3,5.3,0,0,0,1.36-.18,5.2,5.2,0,0,0,3.16-2.42l.52-.9a9,9,0,0,0,2.39.44,11.6,11.6,0,0,1,.15,1.87A12.17,12.17,0,0,1,36.65,58.31H30.58a1.74,1.74,0,0,0,0,3.47h6.07a1.74,1.74,0,0,1,0,3.47H8.92a1.74,1.74,0,1,1,0-3.47H15a1.74,1.74,0,1,0,0-3.47H8.92a5.2,5.2,0,0,0,0,10.4H13.3v6.42H5.45a5.2,5.2,0,0,0-5.2,5.2v6.93A1.73,1.73,0,0,0,2,89h62.4a1.72,1.72,0,0,0,1.73-1.73V80.33a5.2,5.2,0,0,0-5.2-5.2Zm-9.18-3.21v3.21H48.26V71.92a6.68,6.68,0,0,0-2.44-5.16A22.41,22.41,0,0,0,49,65a10.14,10.14,0,0,1,2.73,6.91ZM36.65,68.71h4.94a3.21,3.21,0,0,1,3.2,3.21v3.21H32.36V68.71ZM49,40.85a5.2,5.2,0,1,1,5.2-5.2,5.21,5.21,0,0,1-5.2,5.2ZM41.34,14.22l1.73-3,10.51,6.07-1.73,3ZM45,4.35l13.51,7.8-1.74,3L43.3,7.35ZM24.87,42.74l1.74-3,10.5,6.07-1.73,3Zm17.84.3a1.67,1.67,0,0,1-1.05.8,1.71,1.71,0,0,1-1.31-.17l-13.51-7.8h0a1.73,1.73,0,0,1-.64-2.36L35.74,17a1.73,1.73,0,0,1,1-.8,1.71,1.71,0,0,1,1.31.17l13.51,7.8a1.74,1.74,0,0,1,.64,2.37l-.52.9a8.66,8.66,0,0,0-8.49,14.7ZM41.25,61.09a15.71,15.71,0,0,0,11-14.91,15.22,15.22,0,0,0-.2-2.43,8.69,8.69,0,0,0,3.13-2,19.2,19.2,0,0,1,.53,4.48,19.17,19.17,0,0,1-14,18.38,5.15,5.15,0,0,0-.49-3.47ZM16.77,68.71H28.9v6.42H16.77ZM62.65,85.53H3.72v-5.2a1.73,1.73,0,0,1,1.73-1.74H60.91a1.74,1.74,0,0,1,1.74,1.74Z"/><path class="cls-1" d="M24.52,60.05a1.74,1.74,0,0,0-1.74-1.74h0a1.74,1.74,0,1,0,1.74,1.74Z"/></g></g></svg>