<svg xmlns="http://www.w3.org/2000/svg" width="111.26" height="108.44" viewBox="0 0 111.26 108.44"><defs><style>.cls-1{fill:#fff;}</style></defs><g id="Layer_2" data-name="Layer 2"><g id="Capa_1" data-name="Capa 1"><path class="cls-1" d="M31.42,46l-26,5.37a.54.54,0,0,0-.16,1l7.52,4.34a.54.54,0,0,1,.2.73L.07,79.75a.53.53,0,0,0,0,.59L13.25,97.92a.53.53,0,0,0,.89,0L31.36,68a.54.54,0,0,1,.73-.19l7.52,4.34a.54.54,0,0,0,.78-.63L32,46.33A.53.53,0,0,0,31.42,46Z"/><path class="cls-1" d="M27.49,77.84,15.85,98a.53.53,0,0,0,.46.8H44.2a.54.54,0,0,0,.54-.53V78.1a.54.54,0,0,0-.54-.53H28A.55.55,0,0,0,27.49,77.84Z"/><path class="cls-1" d="M57.15,88.42l17.66,19.84a.53.53,0,0,0,.93-.35V99.22a.54.54,0,0,1,.54-.53h25.79a.54.54,0,0,0,.49-.32l8.66-20.18a.53.53,0,0,0-.49-.74H76.28a.54.54,0,0,1-.54-.54V68.23a.53.53,0,0,0-.93-.36L57.15,87.71A.53.53,0,0,0,57.15,88.42Z"/><path class="cls-1" d="M86.7,75.9H110a.54.54,0,0,0,.46-.81L96.51,50.94a.53.53,0,0,0-.73-.2L78.31,60.83a.54.54,0,0,0-.19.73l8.12,14.07A.54.54,0,0,0,86.7,75.9Z"/><path class="cls-1" d="M81.4,44.31l8.35-25.22a.53.53,0,0,0-.77-.63L81.46,22.8a.53.53,0,0,1-.73-.2L67.83.27A.54.54,0,0,0,67.3,0L45.5,2.59a.54.54,0,0,0-.4.8L62.33,33.22a.53.53,0,0,1-.2.73L54.61,38.3a.53.53,0,0,0,.16,1l26,5.38A.53.53,0,0,0,81.4,44.31Z"/><path class="cls-1" d="M55.78,25,44.13,4.8a.54.54,0,0,0-.93,0L29.25,29a.54.54,0,0,0,.2.73L46.92,39.77a.54.54,0,0,0,.73-.19l8.13-14.07A.57.57,0,0,0,55.78,25Z"/></g></g></svg>