<svg xmlns="http://www.w3.org/2000/svg" width="134.12" height="28.9" viewBox="0 0 134.12 28.9"><defs><style>.cls-1{fill:#fff;}</style></defs><g id="Layer_2" data-name="Layer 2"><g id="Capa_1" data-name="Capa 1"><path class="cls-1" d="M18.91,18c0,.95,0,1.69-.07,2.53H6.21c.55,2.43,2.46,3.6,5.43,3.6a14,14,0,0,0,5.88-1.32l.14.07v4.63A15.81,15.81,0,0,1,10.5,28.9c-5,0-10.5-2.6-10.5-10,0-6.06,4.11-10,9.77-10C15.28,8.92,18.8,12.12,18.91,18Zm-5.8-.85c-.22-2.35-1.39-3.37-3.34-3.37s-3.16,1.1-3.6,3.37Z"/><path class="cls-1" d="M42.64,3.56A3.56,3.56,0,1,1,46.2,7.12,3.56,3.56,0,0,1,42.64,3.56Zm.55,5.88h6v19h-6Z"/><path class="cls-1" d="M71.4,16.82V28.39h-6V18.47c0-2.86-1.51-3.74-3.31-3.74a3.43,3.43,0,0,0-3.38,2.49V28.39h-6v-19h4.88L58.18,12a7,7,0,0,1,6.1-3.05C68.5,8.92,71.4,11.9,71.4,16.82Z"/><path class="cls-1" d="M74,19C74,12.6,78.3,8.92,84.4,8.92a13.57,13.57,0,0,1,5,.81v5l-.22.11a10,10,0,0,0-4-.84c-3.16,0-4.92,1.84-4.92,4.77a4.6,4.6,0,0,0,4.92,5,7.68,7.68,0,0,0,4.08-1.06l.18.14V28a10.78,10.78,0,0,1-4.81.95C78.59,28.9,74,25.38,74,19Z"/><path class="cls-1" d="M92,18.91c0-6.17,4.41-10,10.36-10,5.47,0,10.39,3.16,10.39,10,0,6.2-4.41,10-10.39,10C96.88,28.9,92,25.71,92,18.91Zm14.58,0c0-2.83-1.5-4.81-4.22-4.81s-4.19,2-4.19,4.81,1.4,4.88,4.19,4.88S106.54,21.74,106.54,18.88Z"/><path class="cls-1" d="M128,9.29v5.4l-.15.07a5.4,5.4,0,0,0-1.91-.29c-2.09,0-4.22,1.21-4.37,4.74v9.18h-6v-19h4.89l.58,2.68A5.45,5.45,0,0,1,126,9,6.62,6.62,0,0,1,128,9.29Z"/><path class="cls-1" d="M32.58,21a2.48,2.48,0,0,1-3.94-.07l-.59-.78a1.45,1.45,0,0,0-2.3,0L24.58,21.6l0,.07-4.64,6.65,0,.15h5.38A2.06,2.06,0,0,0,27,27.52l1.55-2.4a2.07,2.07,0,0,1,3.47,0l1.54,2.4a2.06,2.06,0,0,0,1.74.95h5.91l.08-.15-5.91-8a1.44,1.44,0,0,0-2.29,0Z"/><path class="cls-1" d="M32.59,17l.58.79a1.45,1.45,0,0,0,2.3,0l1.17-1.47a.35.35,0,0,0,0-.08l4.64-6.64,0-.16H35.91a2.06,2.06,0,0,0-1.73,1l-1.55,2.4a2.06,2.06,0,0,1-3.46,0l-1.55-2.4a2.06,2.06,0,0,0-1.73-1H20l-.08.16,5.91,8a1.45,1.45,0,0,0,2.3,0l.55-.69A2.48,2.48,0,0,1,32.59,17Z"/><path class="cls-1" d="M131.54,2.27a2.55,2.55,0,1,1-2.64,2.54,2.57,2.57,0,0,1,2.62-2.54Zm0,.51a2,2,0,0,0-2,2,2,2,0,0,0,2,2,1.94,1.94,0,0,0,1.93-2,2,2,0,0,0-1.95-2Zm-.39,3.34h-.59V3.6a4.72,4.72,0,0,1,1-.09,1.4,1.4,0,0,1,.88.2.7.7,0,0,1,.25.54.65.65,0,0,1-.53.6v0c.25.07.39.27.46.61a1.65,1.65,0,0,0,.19.62h-.64a2.36,2.36,0,0,1-.2-.6c0-.28-.2-.4-.52-.4h-.28Zm0-1.42h.28c.33,0,.59-.11.59-.37s-.17-.39-.54-.39a1.94,1.94,0,0,0-.33,0Z"/></g></g></svg>