<svg xmlns="http://www.w3.org/2000/svg" width="151.11" height="32.56" viewBox="0 0 151.11 32.56"><defs><style>.cls-1{fill:#004e80;}.cls-2{fill:#afafaf;}</style></defs><g id="Layer_2" data-name="Layer 2"><g id="Capa_1" data-name="Capa 1"><path class="cls-1" d="M21.31,20.23c0,1.08,0,1.91-.08,2.86H7c.62,2.73,2.77,4.05,6.13,4.05a15.64,15.64,0,0,0,6.62-1.49l.16.09V31a17.86,17.86,0,0,1-8.07,1.61C6.17,32.56,0,29.63,0,21.31c0-6.83,4.63-11.26,11-11.26C17.21,10.05,21.18,13.65,21.31,20.23Zm-6.54-.95c-.25-2.65-1.57-3.81-3.76-3.81S7.45,16.72,7,19.28Z"/><path class="cls-1" d="M48,4a4,4,0,1,1,4,4A4,4,0,0,1,48,4Zm.62,6.62h6.78V32H48.66Z"/><path class="cls-1" d="M80.45,19V32H73.7V20.81c0-3.23-1.69-4.22-3.72-4.22a3.87,3.87,0,0,0-3.81,2.82V32H59.39V10.63h5.5l.66,2.86a7.83,7.83,0,0,1,6.87-3.44C77.18,10.05,80.45,13.41,80.45,19Z"/><path class="cls-1" d="M83.42,21.39c0-7.2,4.8-11.34,11.67-11.34a15.37,15.37,0,0,1,5.62.91v5.67l-.24.13a11.17,11.17,0,0,0-4.56-1c-3.55,0-5.54,2.06-5.54,5.37s2,5.55,5.54,5.59a8.63,8.63,0,0,0,4.6-1.2l.2.17v5.75a12.14,12.14,0,0,1-5.42,1.07C88.55,32.56,83.42,28.59,83.42,21.39Z"/><path class="cls-1" d="M103.61,21.31c0-6.95,5-11.26,11.67-11.26,6.16,0,11.71,3.56,11.71,11.22,0,7-5,11.29-11.71,11.29C109.15,32.56,103.61,29,103.61,21.31Zm16.43,0c0-3.19-1.7-5.42-4.76-5.42s-4.72,2.27-4.72,5.42,1.57,5.5,4.72,5.5S120,24.5,120,21.27Z"/><path class="cls-1" d="M144.23,10.47v6.08l-.16.08a6.09,6.09,0,0,0-2.15-.33c-2.36,0-4.76,1.37-4.93,5.34V32h-6.78V10.63h5.5l.66,3a6.15,6.15,0,0,1,5.55-3.51A7.34,7.34,0,0,1,144.23,10.47Z"/><path class="cls-1" d="M36.7,23.67a2.8,2.8,0,0,1-4.44-.07l-.66-.89a1.63,1.63,0,0,0-2.59,0L27.7,24.33l-.06.08L22.41,31.9l0,.18h6.07A2.33,2.33,0,0,0,30.47,31l1.74-2.71a2.33,2.33,0,0,1,3.91,0L37.86,31a2.33,2.33,0,0,0,2,1.07h6.67l.09-.18-6.66-9a1.63,1.63,0,0,0-2.59,0Z"/><path class="cls-2" d="M36.72,19.13l.65.89a1.63,1.63,0,0,0,2.59,0l1.32-1.67.06-.08,5.23-7.49,0-.17H40.46a2.31,2.31,0,0,0-2,1.07l-1.74,2.7a2.33,2.33,0,0,1-3.91,0l-1.74-2.7a2.31,2.31,0,0,0-1.95-1.07H22.5l-.09.17,6.66,9a1.63,1.63,0,0,0,2.59,0l.61-.78A2.8,2.8,0,0,1,36.72,19.13Z"/><path class="cls-1" d="M148.2,2.55a2.88,2.88,0,1,1-3,2.87,2.9,2.9,0,0,1,3-2.87Zm0,.58A2.22,2.22,0,0,0,146,5.42,2.21,2.21,0,0,0,148.2,7.7a2.18,2.18,0,0,0,2.18-2.28,2.21,2.21,0,0,0-2.2-2.29Zm-.44,3.77h-.66V4.06a5,5,0,0,1,1.1-.11,1.64,1.64,0,0,1,1,.23.8.8,0,0,1,.28.61.75.75,0,0,1-.6.68v0a.84.84,0,0,1,.53.7,1.74,1.74,0,0,0,.21.7h-.72a2.23,2.23,0,0,1-.23-.68c0-.31-.22-.45-.59-.45h-.32Zm0-1.61h.32c.36,0,.66-.12.66-.41s-.19-.44-.61-.44a2.32,2.32,0,0,0-.37,0Z"/></g></g></svg>