<svg xmlns="http://www.w3.org/2000/svg" width="74.28" height="74.34" viewBox="0 0 74.28 74.34"><defs><style>.cls-1{fill:#004e80;}</style></defs><g id="Layer_2" data-name="Layer 2"><g id="Capa_1" data-name="Capa 1"><path class="cls-1" d="M69.93,19.68C78.24,13.48,73.88,0,63.38,0H10.91C.4,0-3.95,13.49,4.35,19.68-3.16,25.21-.43,37.33,8.72,39.13V74.34H35.86L48.07,62.12V39.35H63.38c10.5,0,14.86-13.48,6.55-19.67Zm0-8.75a6.57,6.57,0,0,1-6.56,6.56c-8.69-.33-8.69-12.79,0-13.12a6.58,6.58,0,0,1,6.56,6.56Zm-65.59,0a6.57,6.57,0,0,1,6.56-6.56H54.64a11,11,0,0,0,0,13.12H10.91a6.56,6.56,0,0,1-6.56-6.56Zm0,17.49a6.55,6.55,0,0,1,4.37-6.18V34.61a6.58,6.58,0,0,1-4.37-6.19Zm8.74-6.56H43.7V59H32.77V70H13.09ZM40.61,63.4l-3.47,3.47V63.4Zm7.46-41.54h6.57a11,11,0,0,0,0,13.12H48.07ZM63.38,35a6.56,6.56,0,0,1-6.56-6.56c.33-8.69,12.79-8.68,13.12,0A6.57,6.57,0,0,1,63.38,35Z"/><rect class="cls-1" x="61.19" y="8.75" width="4.37" height="4.37"/><rect class="cls-1" x="61.19" y="26.24" width="4.37" height="4.37"/><rect class="cls-1" x="17.46" y="26.24" width="21.86" height="4.37"/><rect class="cls-1" x="17.46" y="34.98" width="21.86" height="4.37"/><rect class="cls-1" x="17.46" y="43.73" width="21.86" height="4.37"/><rect class="cls-1" x="17.46" y="52.47" width="10.93" height="4.37"/></g></g></svg>