<svg xmlns="http://www.w3.org/2000/svg" width="93.01" height="93.01" viewBox="0 0 93.01 93.01"><defs><style>.cls-1{fill:#004e80;stroke:#004e80;stroke-miterlimit:10;stroke-width:0.5px;}</style></defs><g id="Layer_2" data-name="Layer 2"><g id="Capa_1" data-name="Capa 1"><path class="cls-1" d="M66.33,32.78V27.15A2.19,2.19,0,0,0,64.39,25l-4.65-.58-1.46-3.52,2.89-3.69A2.22,2.22,0,0,0,61,14.26L52.31,5.59a2.21,2.21,0,0,0-2.91-.18L45.7,8.29,42.18,6.84l-.57-4.66A2.21,2.21,0,0,0,39.42.25H27.15A2.19,2.19,0,0,0,25,2.18l-.58,4.66L20.87,8.29,17.18,5.41a2.21,2.21,0,0,0-2.92.18L5.59,14.26a2.22,2.22,0,0,0-.18,2.92L8.3,20.87,6.84,24.39,2.18,25A2.19,2.19,0,0,0,.25,27.15V39.42a2.21,2.21,0,0,0,1.93,2.19l4.66.57L8.29,45.7,5.41,49.4a2.2,2.2,0,0,0,.18,2.91L14.26,61a2.22,2.22,0,0,0,2.92.18l3.69-2.89,3.52,1.46L25,64.39a2.19,2.19,0,0,0,2.18,1.94h5.63A30.1,30.1,0,1,0,66.33,32.78ZM28.61,57.93a2.2,2.2,0,0,0-1.35-1.77l-5.88-2.44a2.21,2.21,0,0,0-2.2.3L16,56.5l-5.92-5.93,2.48-3.17a2.21,2.21,0,0,0,.29-2.2l-2.43-5.89A2.22,2.22,0,0,0,8.65,38l-4-.49V29.1l4-.49a2.21,2.21,0,0,0,1.77-1.35l2.44-5.88a2.23,2.23,0,0,0-.3-2.2L10.08,16,16,10.08l3.18,2.48a2.2,2.2,0,0,0,2.2.29l5.89-2.43a2.22,2.22,0,0,0,1.34-1.77l.49-4h8.38l.49,4a2.22,2.22,0,0,0,1.34,1.77l5.89,2.44a2.23,2.23,0,0,0,2.2-.3l3.17-2.48L56.5,16,54,19.18a2.21,2.21,0,0,0-.3,2.2l2.44,5.89a2.22,2.22,0,0,0,1.77,1.34l4,.49v3.46a30,30,0,0,0-12,2.84,17.05,17.05,0,0,0,0-4.4A16.76,16.76,0,1,0,33.26,50a17,17,0,0,0,2.14-.14,30,30,0,0,0-2.84,12H29.1ZM38.8,44.33a12.33,12.33,0,1,1,5.53-5.53,29.55,29.55,0,0,0-5.53,5.53Zm23.86,44A25.7,25.7,0,1,1,88.35,62.66,25.72,25.72,0,0,1,62.66,88.35Z"/><path class="cls-1" d="M80.28,57.52H76.61V55.31a13.95,13.95,0,1,0-27.9,0v2.21H45a3.68,3.68,0,0,0-3.68,3.67V68.9a3.31,3.31,0,0,0,3.31,3.3h4v.73a6.61,6.61,0,0,0,6.6,6.61H65.59a2.2,2.2,0,1,0,0-4.4H55.31a2.21,2.21,0,0,1-2.2-2.21V55.31a9.55,9.55,0,0,1,19.09,0V70a2.21,2.21,0,0,0,2.2,2.2h6.24A3.31,3.31,0,0,0,84,68.9V61.19a3.67,3.67,0,0,0-3.67-3.67Zm-34.51,4.4h2.94V67.8H45.77ZM79.54,67.8H76.61V61.92h2.93Z"/></g></g></svg>