<svg xmlns="http://www.w3.org/2000/svg" width="82.89" height="77.83" viewBox="0 0 82.89 77.83"><defs><style>.cls-1{fill:#004e80;}</style></defs><g id="Layer_2" data-name="Layer 2"><g id="Capa_1" data-name="Capa 1"><path class="cls-1" d="M5,43,3.55,44.08,0,40.1c2-1.75,3.79-3.41,5.66-5a2.59,2.59,0,0,1,3.42-.27c2.09,1.5,4.11,3.1,6.27,4.75l-3.21,4.24-1.39-.87C9.51,55.2,25.14,70.72,39.83,72.25a33.64,33.64,0,1,0,1.4-66.94c-.15-1.68-.3-3.37-.44-5,15.9-2.1,36.65,8.7,41.31,31C86.43,52,72.63,72.8,51.82,77A39.16,39.16,0,0,1,5,43Z"/><path class="cls-1" d="M68.3,39c0,3.77,0,7.54,0,11.32a3,3,0,0,1-1.88,3.07q-10.34,5-20.65,9.93a3.63,3.63,0,0,1-3.39,0q-10.22-5-20.49-9.88A3,3,0,0,1,20,50.35q.06-11.4,0-22.81a3.18,3.18,0,0,1,2.05-3.27c6.76-3.19,13.49-6.45,20.21-9.73a3.65,3.65,0,0,1,3.51,0q10.23,5,20.52,9.82a3.22,3.22,0,0,1,2,3.32c-.08,3.77,0,7.54,0,11.32ZM63,31.58c-.75.37-1.23.58-1.68.83-5.06,2.76-10.13,5.49-15.15,8.3a3.9,3.9,0,0,1-4.23,0c-5-2.82-10-5.53-15-8.28-.49-.27-1-.48-1.68-.81,0,5.74,0,11.18.05,16.62,0,.48.67,1.14,1.19,1.4,4.58,2.28,9.19,4.48,13.79,6.7a12.07,12.07,0,0,0,1.16.36V52.57h5.26v4c.27,0,.39.09.47,0,5.05-2.41,10.1-4.81,15.13-7.26A1.48,1.48,0,0,0,63,48.26C63,42.82,63,37.38,63,31.58ZM28.47,27.11c.32.2.45.3.59.38,4.71,2.59,9.41,5.21,14.16,7.74a2.32,2.32,0,0,0,1.87-.11c2.78-1.42,5.5-2.95,8.24-4.45l6.39-3.54c-5.18-2.48-10.1-4.87-15-7.19a2.09,2.09,0,0,0-1.5.14C38.36,22.35,33.56,24.66,28.47,27.11Z"/><path class="cls-1" d="M30.91,7.84l-2.06-5L34.63.92l1.31,5.26Z"/><path class="cls-1" d="M12.71,26l-1.62,5L5.84,29.78l1.88-5.85Z"/><path class="cls-1" d="M23.39,5.62l2.85,4.61L22,13.35,18.45,9.24Z"/><path class="cls-1" d="M10.5,18.49l3.63-4.93,4.1,3.49-3.09,4.28Z"/><path class="cls-1" d="M46.64,45.14v4h-5.1v-4Z"/></g></g></svg>